# Blender 3.3.1
# www.blender.org
o Cylinder
v -0.025176 -0.003309 -1.011830
v 0.181300 0.452403 -0.806113
v 0.025176 0.643933 -1.011830
v 0.488896 0.643933 -0.877298
v 0.582672 0.452403 -0.582672
v 0.541210 -0.003309 -0.855293
v 0.855293 0.643933 -0.541210
v 0.877298 -0.003309 -0.488896
v 0.806113 0.452403 -0.181300
v 1.011830 -0.003309 -0.025176
v 1.011830 0.643933 0.025176
v 0.788618 0.452403 0.224200
v 0.877298 0.643933 0.488896
v 0.598598 0.452403 0.569534
v 0.855293 -0.003309 0.541210
v 0.541210 0.643933 0.855293
v 0.488896 -0.003309 0.877298
v 0.181300 0.452403 0.806113
v 0.025176 -0.003309 1.011830
v -0.025176 0.643933 1.011830
v -0.297107 0.452403 0.770984
v -0.488896 0.643933 0.877298
v -0.541210 -0.003309 0.855293
v -0.739666 0.452403 0.395359
v -0.855293 0.643933 0.541210
v -0.877298 -0.003309 0.488896
v -1.011830 -0.003309 0.025176
v -1.011830 0.643933 -0.025176
v -0.806113 0.452403 -0.181300
v -0.877298 0.643933 -0.488896
v -0.569534 0.452403 -0.598598
v -0.855293 -0.003309 -0.541210
v -0.541210 0.643933 -0.855293
v -0.488896 -0.003309 -0.877298
v -0.224200 0.452403 -0.788618
v -0.181300 0.643933 -0.806113
v -0.806113 0.643933 0.181300
v -0.582672 0.643933 0.582672
v -0.181300 0.643933 0.806113
v 0.449181 0.643933 0.717771
v 0.739666 0.643933 -0.395359
v 0.806113 0.643933 0.181300
v -0.717771 0.643933 -0.449181
v 0.297107 0.643933 -0.770984
vn 0.7366 -0.0296 -0.6757
vn 0.6757 -0.0296 0.7366
vn -0.7366 -0.0296 0.6757
vn -0.6757 -0.0296 -0.7366
vn -0.0725 -0.1373 0.9879
vn -0.6326 -0.2104 0.7453
vn -0.8495 0.2338 0.4729
vn -0.9958 0.0813 -0.0430
vn -0.4739 0.2772 -0.8358
vn 0.0725 0.1373 -0.9879
vn 0.6326 0.2104 -0.7453
vn 0.8495 -0.2338 -0.4729
vn 0.9578 -0.2541 0.1342
vn 0.9622 0.0159 -0.2719
vn 0.6757 0.0296 -0.7366
vn 0.9622 -0.0159 0.2719
vn 0.2719 0.0159 0.9622
vn 0.7366 0.0296 0.6757
vn -0.2719 -0.0159 0.9622
vn -0.9622 0.0159 0.2719
vn -0.6757 0.0296 0.7366
vn -0.9622 -0.0159 -0.2719
vn -0.7366 0.0296 -0.6757
vn -0.0000 1.0000 -0.0000
vn 0.2719 -0.0159 -0.9622
vn -0.2719 0.0159 -0.9622
vn -0.8407 -0.1461 -0.5214
vn -0.0000 -1.0000 -0.0000
vn -0.4821 0.1327 0.8660
vn -0.9709 -0.2118 0.1119
vn 0.5214 -0.1461 0.8407
vn -0.1342 -0.2541 -0.9578
vn 0.4821 -0.1327 -0.8660
vn 0.9709 0.2118 -0.1119
vn 0.8358 0.2772 0.4739
vn 0.0430 0.0813 0.9958
vt 0.987183 0.500000
vt 0.011857 0.500000
vt 0.744152 0.487076
vt 0.964652 0.500000
vt 0.000000 0.500000
vt 0.802206 0.480988
vt 0.255848 0.487076
vt 0.988143 1.000000
vt 0.012817 1.000000
vt 0.919067 1.000000
vt 0.366318 0.458649
vt 0.874919 0.500000
vt 0.917620 0.417449
vt 0.910348 0.500000
vt 0.876418 0.450248
vt 0.839652 1.000000
vt 0.450248 0.376418
vt 0.830933 0.500000
vt 0.958649 0.366318
vt 0.785348 0.500000
vt 0.980988 0.302206
vt 0.753903 0.500000
vt 0.987076 0.255848
vt 0.746097 1.000000
vt 0.487076 0.244152
vt 0.705933 0.500000
vt 0.979787 0.184712
vt 0.669067 1.000000
vt 0.458649 0.133682
vt 0.629098 0.500000
vt 0.921738 0.086945
vt 0.660348 0.500000
vt 0.950248 0.123582
vt 0.589652 1.000000
vt 0.376418 0.049752
vt 0.580933 0.500000
vt 0.866318 0.041351
vt 0.535348 0.500000
vt 0.802206 0.019012
vt 0.503903 0.500000
vt 0.755848 0.012924
vt 0.496097 1.000000
vt 0.244152 0.012924
vt 0.441598 0.500000
vt 0.665078 0.028937
vt 0.419067 1.000000
vt 0.133682 0.041351
vt 0.410348 0.500000
vt 0.623582 0.049752
vt 0.328158 0.500000
vt 0.543786 0.139698
vt 0.339652 1.000000
vt 0.049752 0.123582
vt 0.330933 0.500000
vt 0.541351 0.133682
vt 0.253903 0.500000
vt 0.512923 0.244152
vt 0.246097 1.000000
vt 0.012924 0.255848
vt 0.214652 0.500000
vt 0.519012 0.302206
vt 0.169067 1.000000
vt 0.041351 0.366318
vt 0.120902 0.500000
vt 0.586945 0.421738
vt 0.160348 0.500000
vt 0.549752 0.376418
vt 0.123582 0.450248
vt 0.089652 1.000000
vt 0.080933 0.500000
vt 0.633682 0.458649
vt 0.044067 0.500000
vt 0.684712 0.479787
vt 1.000000 0.647958
vt 0.207382 0.438564
vt 0.035348 0.647958
vt 0.061436 0.207382
vt 0.285348 0.647958
vt 0.113165 0.113305
vt 0.374919 0.647958
vt 0.207382 0.061436
vt 0.464652 0.647958
vt 0.350124 0.090220
vt 0.589149 0.647958
vt 0.418340 0.340044
vt 0.828158 0.647958
vt 0.438564 0.207382
vt 0.714652 0.647958
vt 0.090220 0.350124
vt 0.160851 0.647958
vt 0.319325 0.430462
vt 0.941598 0.647958
s 0
f 7/16/1 8/18/1 6/14/1
f 16/34/2 17/36/2 15/32/2
f 25/52/3 26/54/3 23/48/3
f 33/69/4 34/70/4 32/66/4
f 2/4/5 44/92/5 36/74/5
f 5/12/6 41/86/6 44/92/6
f 9/20/7 41/86/7 5/12/7
f 12/26/8 42/88/8 9/20/8
f 18/38/9 40/84/9 14/30/9
f 21/44/10 39/82/10 18/38/10
f 24/50/11 38/80/11 21/44/11
f 24/50/12 37/78/12 38/80/12
f 29/60/13 43/90/13 37/78/13
f 10/22/14 8/18/14 7/16/14 11/24/14
f 4/10/15 7/16/15 6/14/15
f 15/32/16 10/22/16 11/24/16 13/28/16
f 19/40/17 17/36/17 16/34/17 20/42/17
f 13/28/18 16/34/18 15/32/18
f 23/48/19 19/40/19 20/42/19 22/46/19
f 27/56/20 26/54/20 25/52/20 28/58/20
f 22/46/21 25/52/21 23/48/21
f 32/66/22 27/56/22 28/58/22 30/62/22
f 30/62/23 33/69/23 32/66/23
f 22/47/24 20/43/24 16/35/24 13/29/24 42/87/24 40/83/24 39/81/24 38/79/24 37/77/24 43/89/24 36/75/24 44/91/24 4/11/24 3/7/24 33/68/24 30/63/24 28/59/24 25/53/24
f 6/14/25 1/1/25 3/8/25 4/10/25
f 13/29/24 11/25/24 7/17/24 4/11/24 44/91/24 41/85/24 42/87/24
f 1/2/26 34/70/26 33/69/26 3/9/26
f 42/88/27 12/26/27 14/30/27 40/84/27
f 26/55/28 27/57/28 32/67/28 34/71/28 1/3/28 6/15/28 8/19/28 10/23/28 15/33/28 17/37/28 19/41/28 23/49/28
f 2/4/29 5/12/29 44/92/29
f 9/20/30 42/88/30 41/86/30
f 36/76/31 43/90/31 31/64/31 35/72/31
f 18/38/32 39/82/32 40/84/32
f 21/44/33 38/80/33 39/82/33
f 24/50/34 29/60/34 37/78/34
f 29/60/35 31/64/35 43/90/35
f 35/72/36 2/5/36 36/76/36
f 9/21/24 5/13/24 2/6/24 35/73/24 31/65/24 29/61/24 24/51/24 21/45/24 18/39/24 14/31/24 12/27/24
